<mxfile host="app.diagrams.net" modified="2023-12-10T15:19:19.377Z" agent="Mozilla/5.0 (Windows NT 10.0; Win64; x64) AppleWebKit/537.36 (KHTML, like Gecko) Chrome/120.0.0.0 Safari/537.36 Edg/120.0.0.0" etag="2LDYmD7IYLN5a1sc-Rlm" version="22.1.7" type="device">
  <diagram name="Page-1" id="VFcDQB4aFmFoAc6JzZJj">
    <mxGraphModel dx="1226" dy="839" grid="1" gridSize="10" guides="1" tooltips="1" connect="1" arrows="1" fold="1" page="1" pageScale="1" pageWidth="4681" pageHeight="3300" math="0" shadow="0">
      <root>
        <mxCell id="0" />
        <mxCell id="1" parent="0" />
        <mxCell id="L_GFnndH51G4k3ppBqN6-110" value="" style="rounded=0;whiteSpace=wrap;html=1;strokeColor=#051B93;shadow=0;" vertex="1" parent="1">
          <mxGeometry x="370" y="620" width="570" height="70" as="geometry" />
        </mxCell>
        <mxCell id="L_GFnndH51G4k3ppBqN6-98" value="" style="rounded=0;whiteSpace=wrap;html=1;strokeColor=#051B93;" vertex="1" parent="1">
          <mxGeometry x="1000" y="220" width="180" height="280" as="geometry" />
        </mxCell>
        <mxCell id="L_GFnndH51G4k3ppBqN6-94" style="edgeStyle=orthogonalEdgeStyle;rounded=0;orthogonalLoop=1;jettySize=auto;html=1;exitX=1;exitY=0.5;exitDx=0;exitDy=0;endArrow=halfCircle;endFill=0;fillColor=#dae8fc;strokeColor=#051B93;" edge="1" parent="1" source="B6WssuKIhCTXysGa1sgd-14">
          <mxGeometry relative="1" as="geometry">
            <mxPoint x="990" y="300" as="targetPoint" />
          </mxGeometry>
        </mxCell>
        <mxCell id="L_GFnndH51G4k3ppBqN6-97" style="edgeStyle=orthogonalEdgeStyle;rounded=0;orthogonalLoop=1;jettySize=auto;html=1;exitX=1;exitY=0.5;exitDx=0;exitDy=0;endArrow=halfCircle;endFill=0;fillColor=#dae8fc;strokeColor=#051B93;" edge="1" parent="1" source="B6WssuKIhCTXysGa1sgd-14">
          <mxGeometry relative="1" as="geometry">
            <mxPoint x="990" y="380" as="targetPoint" />
          </mxGeometry>
        </mxCell>
        <mxCell id="L_GFnndH51G4k3ppBqN6-99" style="edgeStyle=orthogonalEdgeStyle;rounded=0;orthogonalLoop=1;jettySize=auto;html=1;exitX=1;exitY=0.5;exitDx=0;exitDy=0;endArrow=halfCircle;endFill=0;strokeColor=#051B93;" edge="1" parent="1" source="B6WssuKIhCTXysGa1sgd-14">
          <mxGeometry relative="1" as="geometry">
            <mxPoint x="990" y="460" as="targetPoint" />
          </mxGeometry>
        </mxCell>
        <mxCell id="L_GFnndH51G4k3ppBqN6-106" style="edgeStyle=orthogonalEdgeStyle;rounded=0;orthogonalLoop=1;jettySize=auto;html=1;exitX=0.5;exitY=1;exitDx=0;exitDy=0;entryX=0.5;entryY=0;entryDx=0;entryDy=0;strokeColor=#006600;endArrow=none;endFill=0;flowAnimation=1;" edge="1" parent="1" source="B6WssuKIhCTXysGa1sgd-14" target="L_GFnndH51G4k3ppBqN6-104">
          <mxGeometry relative="1" as="geometry" />
        </mxCell>
        <mxCell id="L_GFnndH51G4k3ppBqN6-107" style="edgeStyle=orthogonalEdgeStyle;rounded=0;orthogonalLoop=1;jettySize=auto;html=1;exitX=0.5;exitY=1;exitDx=0;exitDy=0;entryX=0.5;entryY=0;entryDx=0;entryDy=0;strokeColor=#006600;endArrow=none;endFill=0;flowAnimation=1;" edge="1" parent="1" source="B6WssuKIhCTXysGa1sgd-14" target="L_GFnndH51G4k3ppBqN6-105">
          <mxGeometry relative="1" as="geometry" />
        </mxCell>
        <mxCell id="B6WssuKIhCTXysGa1sgd-14" value="" style="rounded=1;whiteSpace=wrap;html=1;arcSize=3;strokeColor=#051B93;shadow=0;fillColor=default;dashed=1;" parent="1" vertex="1">
          <mxGeometry x="380" y="200" width="570" height="360" as="geometry" />
        </mxCell>
        <mxCell id="y4XwITTljBbVvZWU0SnO-5" style="edgeStyle=orthogonalEdgeStyle;rounded=0;orthogonalLoop=1;jettySize=auto;html=1;exitX=1;exitY=0.5;exitDx=0;exitDy=0;entryX=0;entryY=0.5;entryDx=0;entryDy=0;fillColor=#f8cecc;strokeColor=#b85450;orthogonal=0;flowAnimation=1;" parent="1" source="y4XwITTljBbVvZWU0SnO-1" target="y4XwITTljBbVvZWU0SnO-3" edge="1">
          <mxGeometry relative="1" as="geometry" />
        </mxCell>
        <mxCell id="L_GFnndH51G4k3ppBqN6-13" style="edgeStyle=orthogonalEdgeStyle;rounded=0;orthogonalLoop=1;jettySize=auto;html=1;exitX=1;exitY=0.5;exitDx=0;exitDy=0;startArrow=classic;startFill=1;entryX=0;entryY=0.5;entryDx=0;entryDy=0;fillColor=#f5f5f5;strokeColor=#666666;flowAnimation=1;" edge="1" parent="1" source="y4XwITTljBbVvZWU0SnO-3" target="L_GFnndH51G4k3ppBqN6-11">
          <mxGeometry relative="1" as="geometry">
            <mxPoint x="460" y="379.9230769230769" as="targetPoint" />
          </mxGeometry>
        </mxCell>
        <mxCell id="L_GFnndH51G4k3ppBqN6-57" style="rounded=0;orthogonalLoop=1;jettySize=auto;html=1;exitX=1;exitY=0.5;exitDx=0;exitDy=0;entryX=0;entryY=0.5;entryDx=0;entryDy=0;fillColor=#ffcc99;strokeColor=#f7dcb6;flowAnimation=1;" edge="1" parent="1" source="L_GFnndH51G4k3ppBqN6-11" target="L_GFnndH51G4k3ppBqN6-21">
          <mxGeometry relative="1" as="geometry" />
        </mxCell>
        <mxCell id="L_GFnndH51G4k3ppBqN6-58" style="rounded=0;orthogonalLoop=1;jettySize=auto;html=1;exitX=1;exitY=0.5;exitDx=0;exitDy=0;entryX=0;entryY=0.5;entryDx=0;entryDy=0;fillColor=#ffcc99;strokeColor=#f7dcb6;flowAnimation=1;" edge="1" parent="1" source="L_GFnndH51G4k3ppBqN6-11" target="L_GFnndH51G4k3ppBqN6-40">
          <mxGeometry relative="1" as="geometry" />
        </mxCell>
        <mxCell id="L_GFnndH51G4k3ppBqN6-59" style="rounded=0;orthogonalLoop=1;jettySize=auto;html=1;exitX=1;exitY=0.5;exitDx=0;exitDy=0;entryX=0;entryY=0.5;entryDx=0;entryDy=0;fillColor=#ffcc99;strokeColor=#f7dcb6;flowAnimation=1;" edge="1" parent="1" source="L_GFnndH51G4k3ppBqN6-11" target="L_GFnndH51G4k3ppBqN6-47">
          <mxGeometry relative="1" as="geometry" />
        </mxCell>
        <mxCell id="L_GFnndH51G4k3ppBqN6-60" style="rounded=0;orthogonalLoop=1;jettySize=auto;html=1;exitX=1;exitY=0.5;exitDx=0;exitDy=0;entryX=0;entryY=0.5;entryDx=0;entryDy=0;fillColor=#ffcc99;strokeColor=#f7dcb6;flowAnimation=1;" edge="1" parent="1" source="L_GFnndH51G4k3ppBqN6-11" target="L_GFnndH51G4k3ppBqN6-33">
          <mxGeometry relative="1" as="geometry" />
        </mxCell>
        <mxCell id="L_GFnndH51G4k3ppBqN6-62" style="edgeStyle=orthogonalEdgeStyle;rounded=0;orthogonalLoop=1;jettySize=auto;html=1;exitX=0.5;exitY=1;exitDx=0;exitDy=0;fillColor=#ffff88;strokeColor=#66B2FF;flowAnimation=1;" edge="1" parent="1" source="L_GFnndH51G4k3ppBqN6-47" target="L_GFnndH51G4k3ppBqN6-33">
          <mxGeometry relative="1" as="geometry" />
        </mxCell>
        <mxCell id="L_GFnndH51G4k3ppBqN6-63" style="edgeStyle=orthogonalEdgeStyle;rounded=0;orthogonalLoop=1;jettySize=auto;html=1;exitX=0.5;exitY=0;exitDx=0;exitDy=0;entryX=0.5;entryY=1;entryDx=0;entryDy=0;fillColor=#ffff88;strokeColor=#66B2FF;flowAnimation=1;" edge="1" parent="1" source="L_GFnndH51G4k3ppBqN6-47" target="L_GFnndH51G4k3ppBqN6-40">
          <mxGeometry relative="1" as="geometry" />
        </mxCell>
        <mxCell id="y4XwITTljBbVvZWU0SnO-1" value="&lt;b&gt;&lt;font style=&quot;font-size: 15px;&quot;&gt;&amp;nbsp; &amp;nbsp;Website&lt;/font&gt;&lt;/b&gt;" style="rounded=1;whiteSpace=wrap;html=1;align=left;fillColor=#f5f5f5;strokeColor=default;fontColor=#333333;shadow=0;" parent="1" vertex="1">
          <mxGeometry x="170" y="360" width="150" height="40" as="geometry" />
        </mxCell>
        <mxCell id="RvVDDghVvxKwX2w1REgH-1" value="" style="shape=image;verticalLabelPosition=bottom;labelBackgroundColor=default;verticalAlign=top;aspect=fixed;imageAspect=0;image=https://static-00.iconduck.com/assets.00/next-js-icon-2048x2048-5dqjgeku.png;" parent="1" vertex="1">
          <mxGeometry x="280" y="365" width="30" height="30" as="geometry" />
        </mxCell>
        <mxCell id="L_GFnndH51G4k3ppBqN6-42" style="edgeStyle=orthogonalEdgeStyle;rounded=0;orthogonalLoop=1;jettySize=auto;html=1;exitX=1;exitY=0.5;exitDx=0;exitDy=0;entryX=0.5;entryY=1;entryDx=0;entryDy=0;startArrow=classic;startFill=1;fillColor=#f5f5f5;strokeColor=#666666;flowAnimation=1;" edge="1" parent="1" source="L_GFnndH51G4k3ppBqN6-40" target="L_GFnndH51G4k3ppBqN6-44">
          <mxGeometry relative="1" as="geometry" />
        </mxCell>
        <mxCell id="L_GFnndH51G4k3ppBqN6-44" value="Search Service" style="rounded=1;whiteSpace=wrap;html=1;horizontal=0;fontStyle=1;fillColor=#f5f5f5;fontColor=#333333;strokeColor=#666666;rotation=90;align=center;shadow=0;" vertex="1" parent="1">
          <mxGeometry x="800" y="222.5" width="40" height="215" as="geometry" />
        </mxCell>
        <mxCell id="L_GFnndH51G4k3ppBqN6-66" value="" style="shape=image;verticalLabelPosition=bottom;labelBackgroundColor=default;verticalAlign=top;aspect=fixed;imageAspect=0;image=https://cdn3.iconfinder.com/data/icons/logos-and-brands-adobe/512/267_Python-512.png;" vertex="1" parent="1">
          <mxGeometry x="724.94" y="315" width="30" height="30" as="geometry" />
        </mxCell>
        <mxCell id="y4XwITTljBbVvZWU0SnO-3" value="API Gateway" style="rounded=1;whiteSpace=wrap;html=1;horizontal=0;fontStyle=1;fillColor=#f5f5f5;fontColor=#333333;strokeColor=#666666;shadow=0;" parent="1" vertex="1">
          <mxGeometry x="400" y="220" width="40" height="320" as="geometry" />
        </mxCell>
        <mxCell id="L_GFnndH51G4k3ppBqN6-8" value="" style="shape=image;verticalLabelPosition=bottom;labelBackgroundColor=default;verticalAlign=top;aspect=fixed;imageAspect=0;image=https://static-00.iconduck.com/assets.00/nestjs-icon-256x255-r03j160r.png;" vertex="1" parent="1">
          <mxGeometry x="404.94" y="230" width="30.12" height="30" as="geometry" />
        </mxCell>
        <mxCell id="L_GFnndH51G4k3ppBqN6-75" style="rounded=0;orthogonalLoop=1;jettySize=auto;html=1;exitX=0.5;exitY=0;exitDx=0;exitDy=0;strokeColor=#F19C99;flowAnimation=1;endArrow=open;endFill=0;entryX=0;entryY=1;entryDx=0;entryDy=0;" edge="1" parent="1" source="L_GFnndH51G4k3ppBqN6-11" target="L_GFnndH51G4k3ppBqN6-73">
          <mxGeometry relative="1" as="geometry" />
        </mxCell>
        <mxCell id="L_GFnndH51G4k3ppBqN6-11" value="" style="whiteSpace=wrap;html=1;aspect=fixed;shadow=0;" vertex="1" parent="1">
          <mxGeometry x="480" y="355" width="50" height="50" as="geometry" />
        </mxCell>
        <mxCell id="L_GFnndH51G4k3ppBqN6-7" value="" style="shape=image;verticalLabelPosition=bottom;labelBackgroundColor=default;verticalAlign=top;aspect=fixed;imageAspect=0;image=https://upload.wikimedia.org/wikipedia/commons/thumb/c/c0/Dapr_logo.svg/1200px-Dapr_logo.svg.png;" vertex="1" parent="1">
          <mxGeometry x="490" y="368.97" width="30" height="22.05" as="geometry" />
        </mxCell>
        <mxCell id="L_GFnndH51G4k3ppBqN6-23" style="edgeStyle=orthogonalEdgeStyle;rounded=0;orthogonalLoop=1;jettySize=auto;html=1;exitX=1;exitY=0.5;exitDx=0;exitDy=0;entryX=0.5;entryY=1;entryDx=0;entryDy=0;startArrow=classic;startFill=1;fillColor=#f5f5f5;strokeColor=#666666;flowAnimation=1;" edge="1" parent="1" source="L_GFnndH51G4k3ppBqN6-21" target="L_GFnndH51G4k3ppBqN6-16">
          <mxGeometry relative="1" as="geometry" />
        </mxCell>
        <mxCell id="L_GFnndH51G4k3ppBqN6-76" style="rounded=0;orthogonalLoop=1;jettySize=auto;html=1;exitX=0.5;exitY=0;exitDx=0;exitDy=0;entryX=1;entryY=1;entryDx=0;entryDy=0;strokeColor=#F19C99;flowAnimation=1;endArrow=open;endFill=0;" edge="1" parent="1" source="L_GFnndH51G4k3ppBqN6-21" target="L_GFnndH51G4k3ppBqN6-73">
          <mxGeometry relative="1" as="geometry" />
        </mxCell>
        <mxCell id="L_GFnndH51G4k3ppBqN6-21" value="" style="whiteSpace=wrap;html=1;aspect=fixed;shadow=0;" vertex="1" parent="1">
          <mxGeometry x="620" y="220" width="50" height="50" as="geometry" />
        </mxCell>
        <mxCell id="L_GFnndH51G4k3ppBqN6-22" value="" style="shape=image;verticalLabelPosition=bottom;labelBackgroundColor=default;verticalAlign=top;aspect=fixed;imageAspect=0;image=https://upload.wikimedia.org/wikipedia/commons/thumb/c/c0/Dapr_logo.svg/1200px-Dapr_logo.svg.png;" vertex="1" parent="1">
          <mxGeometry x="630" y="233.97000000000003" width="30" height="22.05" as="geometry" />
        </mxCell>
        <mxCell id="L_GFnndH51G4k3ppBqN6-40" value="" style="whiteSpace=wrap;html=1;aspect=fixed;shadow=0;" vertex="1" parent="1">
          <mxGeometry x="620" y="305" width="50" height="50" as="geometry" />
        </mxCell>
        <mxCell id="L_GFnndH51G4k3ppBqN6-41" value="" style="shape=image;verticalLabelPosition=bottom;labelBackgroundColor=default;verticalAlign=top;aspect=fixed;imageAspect=0;image=https://upload.wikimedia.org/wikipedia/commons/thumb/c/c0/Dapr_logo.svg/1200px-Dapr_logo.svg.png;" vertex="1" parent="1">
          <mxGeometry x="630" y="318.97" width="30" height="22.05" as="geometry" />
        </mxCell>
        <mxCell id="L_GFnndH51G4k3ppBqN6-16" value="Auth Service" style="rounded=1;whiteSpace=wrap;html=1;horizontal=0;fontStyle=1;fillColor=#f5f5f5;fontColor=#333333;strokeColor=#666666;rotation=90;align=center;shadow=0;" vertex="1" parent="1">
          <mxGeometry x="800" y="137.5" width="40" height="215" as="geometry" />
        </mxCell>
        <mxCell id="L_GFnndH51G4k3ppBqN6-17" value="" style="shape=image;verticalLabelPosition=bottom;labelBackgroundColor=default;verticalAlign=top;aspect=fixed;imageAspect=0;image=https://static-00.iconduck.com/assets.00/nestjs-icon-256x255-r03j160r.png;" vertex="1" parent="1">
          <mxGeometry x="724.94" y="230" width="30.12" height="30" as="geometry" />
        </mxCell>
        <mxCell id="L_GFnndH51G4k3ppBqN6-49" style="edgeStyle=orthogonalEdgeStyle;rounded=0;orthogonalLoop=1;jettySize=auto;html=1;exitX=1;exitY=0.5;exitDx=0;exitDy=0;entryX=0.5;entryY=1;entryDx=0;entryDy=0;startArrow=classic;startFill=1;fillColor=#f5f5f5;strokeColor=#666666;flowAnimation=1;" edge="1" parent="1" source="L_GFnndH51G4k3ppBqN6-47" target="L_GFnndH51G4k3ppBqN6-51">
          <mxGeometry relative="1" as="geometry" />
        </mxCell>
        <mxCell id="L_GFnndH51G4k3ppBqN6-77" style="rounded=0;orthogonalLoop=1;jettySize=auto;html=1;exitX=0;exitY=0;exitDx=0;exitDy=0;strokeColor=#F19C99;flowAnimation=1;endArrow=open;endFill=0;entryX=0.75;entryY=1;entryDx=0;entryDy=0;" edge="1" parent="1" source="L_GFnndH51G4k3ppBqN6-40" target="L_GFnndH51G4k3ppBqN6-73">
          <mxGeometry relative="1" as="geometry">
            <mxPoint x="560" y="170" as="targetPoint" />
          </mxGeometry>
        </mxCell>
        <mxCell id="L_GFnndH51G4k3ppBqN6-109" style="rounded=0;orthogonalLoop=1;jettySize=auto;html=1;exitX=0;exitY=0;exitDx=0;exitDy=0;entryX=0.5;entryY=1;entryDx=0;entryDy=0;strokeColor=#F19C99;flowAnimation=1;endArrow=open;endFill=0;" edge="1" parent="1" source="L_GFnndH51G4k3ppBqN6-47" target="L_GFnndH51G4k3ppBqN6-73">
          <mxGeometry relative="1" as="geometry" />
        </mxCell>
        <mxCell id="L_GFnndH51G4k3ppBqN6-47" value="" style="whiteSpace=wrap;html=1;aspect=fixed;shadow=0;" vertex="1" parent="1">
          <mxGeometry x="620" y="400" width="50" height="50" as="geometry" />
        </mxCell>
        <mxCell id="L_GFnndH51G4k3ppBqN6-48" value="" style="shape=image;verticalLabelPosition=bottom;labelBackgroundColor=default;verticalAlign=top;aspect=fixed;imageAspect=0;image=https://upload.wikimedia.org/wikipedia/commons/thumb/c/c0/Dapr_logo.svg/1200px-Dapr_logo.svg.png;" vertex="1" parent="1">
          <mxGeometry x="630" y="413.97" width="30" height="22.05" as="geometry" />
        </mxCell>
        <mxCell id="L_GFnndH51G4k3ppBqN6-35" style="edgeStyle=orthogonalEdgeStyle;rounded=0;orthogonalLoop=1;jettySize=auto;html=1;exitX=1;exitY=0.5;exitDx=0;exitDy=0;entryX=0.5;entryY=1;entryDx=0;entryDy=0;startArrow=classic;startFill=1;fillColor=#f5f5f5;strokeColor=#666666;flowAnimation=1;" edge="1" parent="1" source="L_GFnndH51G4k3ppBqN6-33" target="L_GFnndH51G4k3ppBqN6-37">
          <mxGeometry relative="1" as="geometry" />
        </mxCell>
        <mxCell id="L_GFnndH51G4k3ppBqN6-78" style="rounded=0;orthogonalLoop=1;jettySize=auto;html=1;exitX=0;exitY=0;exitDx=0;exitDy=0;entryX=0.25;entryY=1;entryDx=0;entryDy=0;strokeColor=#F19C99;flowAnimation=1;endArrow=open;endFill=0;" edge="1" parent="1" source="L_GFnndH51G4k3ppBqN6-33" target="L_GFnndH51G4k3ppBqN6-73">
          <mxGeometry relative="1" as="geometry" />
        </mxCell>
        <mxCell id="L_GFnndH51G4k3ppBqN6-33" value="" style="whiteSpace=wrap;html=1;aspect=fixed;shadow=0;" vertex="1" parent="1">
          <mxGeometry x="620" y="490" width="50" height="50" as="geometry" />
        </mxCell>
        <mxCell id="L_GFnndH51G4k3ppBqN6-34" value="" style="shape=image;verticalLabelPosition=bottom;labelBackgroundColor=default;verticalAlign=top;aspect=fixed;imageAspect=0;image=https://upload.wikimedia.org/wikipedia/commons/thumb/c/c0/Dapr_logo.svg/1200px-Dapr_logo.svg.png;" vertex="1" parent="1">
          <mxGeometry x="630" y="503.97" width="30" height="22.05" as="geometry" />
        </mxCell>
        <mxCell id="L_GFnndH51G4k3ppBqN6-51" value="Law Service" style="rounded=1;whiteSpace=wrap;html=1;horizontal=0;fontStyle=1;fillColor=#f5f5f5;fontColor=#333333;strokeColor=#666666;rotation=90;align=center;shadow=0;" vertex="1" parent="1">
          <mxGeometry x="800" y="317.5" width="40" height="215" as="geometry" />
        </mxCell>
        <mxCell id="L_GFnndH51G4k3ppBqN6-52" value="" style="shape=image;verticalLabelPosition=bottom;labelBackgroundColor=default;verticalAlign=top;aspect=fixed;imageAspect=0;image=https://static-00.iconduck.com/assets.00/nestjs-icon-256x255-r03j160r.png;" vertex="1" parent="1">
          <mxGeometry x="724.94" y="410" width="30.12" height="30" as="geometry" />
        </mxCell>
        <mxCell id="L_GFnndH51G4k3ppBqN6-37" value="Chat Service" style="rounded=1;whiteSpace=wrap;html=1;horizontal=0;fontStyle=1;fillColor=#f5f5f5;fontColor=#333333;strokeColor=#666666;rotation=90;align=center;shadow=0;" vertex="1" parent="1">
          <mxGeometry x="800" y="407.5" width="40" height="215" as="geometry" />
        </mxCell>
        <mxCell id="L_GFnndH51G4k3ppBqN6-38" value="" style="shape=image;verticalLabelPosition=bottom;labelBackgroundColor=default;verticalAlign=top;aspect=fixed;imageAspect=0;image=https://static-00.iconduck.com/assets.00/nestjs-icon-256x255-r03j160r.png;" vertex="1" parent="1">
          <mxGeometry x="724.94" y="500" width="30.12" height="30" as="geometry" />
        </mxCell>
        <mxCell id="L_GFnndH51G4k3ppBqN6-82" style="edgeStyle=orthogonalEdgeStyle;rounded=0;orthogonalLoop=1;jettySize=auto;html=1;exitX=1;exitY=0.5;exitDx=0;exitDy=0;entryX=0;entryY=0.5;entryDx=0;entryDy=0;fillColor=#f8cecc;strokeColor=#f19c99;flowAnimation=1;" edge="1" parent="1" source="L_GFnndH51G4k3ppBqN6-73" target="B6WssuKIhCTXysGa1sgd-15">
          <mxGeometry relative="1" as="geometry" />
        </mxCell>
        <mxCell id="B6WssuKIhCTXysGa1sgd-15" value="" style="rounded=1;whiteSpace=wrap;html=1;align=left;container=0;shadow=0;fillColor=default;strokeColor=#051B93;" parent="1" vertex="1">
          <mxGeometry x="640" y="110" width="310" height="50" as="geometry" />
        </mxCell>
        <mxCell id="B6WssuKIhCTXysGa1sgd-24" value="" style="shape=image;verticalLabelPosition=bottom;labelBackgroundColor=default;verticalAlign=top;aspect=fixed;imageAspect=0;image=https://landscape.cncf.io/logos/grafana-tempo.svg;container=0;" parent="1" vertex="1">
          <mxGeometry x="666.320122608211" y="115" width="73.67713171094185" height="38.64016347761471" as="geometry" />
        </mxCell>
        <mxCell id="B6WssuKIhCTXysGa1sgd-25" value="" style="shape=image;verticalLabelPosition=bottom;labelBackgroundColor=default;verticalAlign=top;aspect=fixed;imageAspect=0;image=https://landscape.cncf.io/logos/grafana.svg;container=0;" parent="1" vertex="1">
          <mxGeometry x="811.0613895597251" y="115.68000000000006" width="37.86736020806243" height="38.64016347761471" as="geometry" />
        </mxCell>
        <mxCell id="B6WssuKIhCTXysGa1sgd-27" value="" style="shape=image;verticalLabelPosition=bottom;labelBackgroundColor=default;verticalAlign=top;aspect=fixed;imageAspect=0;image=https://landscape.cncf.io/logos/prometheus.svg;container=0;" parent="1" vertex="1">
          <mxGeometry x="750.0006130410552" y="115" width="44.56176853055917" height="38.64016347761471" as="geometry" />
        </mxCell>
        <mxCell id="b24eOuDdEdzWFNxw-7Ca-43" value="" style="shape=image;verticalLabelPosition=bottom;labelBackgroundColor=default;verticalAlign=top;aspect=fixed;imageAspect=0;image=https://grafana.com/docs/loki/latest/logo_and_name.png;container=0;" parent="1" vertex="1">
          <mxGeometry x="870.0017165149545" y="115.68000000000006" width="65.36949656325469" height="38.64016347761471" as="geometry" />
        </mxCell>
        <mxCell id="L_GFnndH51G4k3ppBqN6-84" value="&lt;font color=&quot;#051b93&quot; style=&quot;font-size: 17px;&quot;&gt;Dapr Components&lt;/font&gt;" style="text;html=1;strokeColor=none;fillColor=none;align=center;verticalAlign=middle;whiteSpace=wrap;rounded=0;" vertex="1" parent="1">
          <mxGeometry x="1010" y="230" width="160" height="30" as="geometry" />
        </mxCell>
        <mxCell id="L_GFnndH51G4k3ppBqN6-95" style="edgeStyle=orthogonalEdgeStyle;rounded=0;orthogonalLoop=1;jettySize=auto;html=1;exitX=0;exitY=0.5;exitDx=0;exitDy=0;startArrow=none;startFill=0;endArrow=oval;endFill=1;fillColor=#dae8fc;strokeColor=#051B93;" edge="1" parent="1" source="L_GFnndH51G4k3ppBqN6-85">
          <mxGeometry relative="1" as="geometry">
            <mxPoint x="989.9999999999998" y="299.57142857142856" as="targetPoint" />
          </mxGeometry>
        </mxCell>
        <mxCell id="L_GFnndH51G4k3ppBqN6-85" value="" style="rounded=0;whiteSpace=wrap;html=1;" vertex="1" parent="1">
          <mxGeometry x="1010" y="270" width="160" height="60" as="geometry" />
        </mxCell>
        <mxCell id="L_GFnndH51G4k3ppBqN6-96" style="edgeStyle=orthogonalEdgeStyle;rounded=0;orthogonalLoop=1;jettySize=auto;html=1;exitX=0;exitY=0.5;exitDx=0;exitDy=0;endArrow=oval;endFill=1;fillColor=#dae8fc;strokeColor=#051B93;" edge="1" parent="1" source="L_GFnndH51G4k3ppBqN6-86">
          <mxGeometry relative="1" as="geometry">
            <mxPoint x="990" y="379.8461538461538" as="targetPoint" />
          </mxGeometry>
        </mxCell>
        <mxCell id="L_GFnndH51G4k3ppBqN6-86" value="" style="rounded=0;whiteSpace=wrap;html=1;" vertex="1" parent="1">
          <mxGeometry x="1010" y="350.00000000000006" width="160" height="60" as="geometry" />
        </mxCell>
        <mxCell id="L_GFnndH51G4k3ppBqN6-103" style="edgeStyle=orthogonalEdgeStyle;rounded=0;orthogonalLoop=1;jettySize=auto;html=1;exitX=0;exitY=0.5;exitDx=0;exitDy=0;endArrow=oval;endFill=1;strokeColor=#051B93;" edge="1" parent="1" source="L_GFnndH51G4k3ppBqN6-87">
          <mxGeometry relative="1" as="geometry">
            <mxPoint x="990" y="460" as="targetPoint" />
          </mxGeometry>
        </mxCell>
        <mxCell id="L_GFnndH51G4k3ppBqN6-87" value="" style="rounded=0;whiteSpace=wrap;html=1;" vertex="1" parent="1">
          <mxGeometry x="1010" y="430" width="160" height="60" as="geometry" />
        </mxCell>
        <mxCell id="L_GFnndH51G4k3ppBqN6-90" value="&lt;font style=&quot;font-size: 14px;&quot;&gt;Pubsub&lt;br&gt;Broker&lt;/font&gt;" style="text;html=1;strokeColor=none;fillColor=none;align=center;verticalAlign=middle;whiteSpace=wrap;rounded=0;" vertex="1" parent="1">
          <mxGeometry x="1020" y="285" width="60" height="30" as="geometry" />
        </mxCell>
        <mxCell id="L_GFnndH51G4k3ppBqN6-91" value="" style="shape=image;verticalLabelPosition=bottom;labelBackgroundColor=default;verticalAlign=top;aspect=fixed;imageAspect=0;image=https://upload.wikimedia.org/wikipedia/commons/thumb/0/0a/Apache_kafka-icon.svg/1200px-Apache_kafka-icon.svg.png;" vertex="1" parent="1">
          <mxGeometry x="1110" y="285" width="30" height="30" as="geometry" />
        </mxCell>
        <mxCell id="L_GFnndH51G4k3ppBqN6-92" value="&lt;span style=&quot;font-size: 14px;&quot;&gt;State Store&lt;/span&gt;" style="text;html=1;strokeColor=none;fillColor=none;align=center;verticalAlign=middle;whiteSpace=wrap;rounded=0;" vertex="1" parent="1">
          <mxGeometry x="1020" y="365" width="60" height="30" as="geometry" />
        </mxCell>
        <mxCell id="L_GFnndH51G4k3ppBqN6-93" value="" style="shape=image;verticalLabelPosition=bottom;labelBackgroundColor=default;verticalAlign=top;aspect=fixed;imageAspect=0;image=https://cdn4.iconfinder.com/data/icons/redis-2/1451/Untitled-2-512.png;" vertex="1" parent="1">
          <mxGeometry x="1110" y="365" width="30" height="30" as="geometry" />
        </mxCell>
        <mxCell id="L_GFnndH51G4k3ppBqN6-100" value="&lt;span style=&quot;font-size: 14px;&quot;&gt;Resource Binding&lt;/span&gt;" style="text;html=1;strokeColor=none;fillColor=none;align=center;verticalAlign=middle;whiteSpace=wrap;rounded=0;" vertex="1" parent="1">
          <mxGeometry x="1020" y="445" width="60" height="30" as="geometry" />
        </mxCell>
        <mxCell id="L_GFnndH51G4k3ppBqN6-101" value="" style="shape=image;verticalLabelPosition=bottom;labelBackgroundColor=default;verticalAlign=top;aspect=fixed;imageAspect=0;image=https://upload.wikimedia.org/wikipedia/commons/thumb/0/0a/Apache_kafka-icon.svg/1200px-Apache_kafka-icon.svg.png;" vertex="1" parent="1">
          <mxGeometry x="1110" y="445" width="30" height="30" as="geometry" />
        </mxCell>
        <mxCell id="L_GFnndH51G4k3ppBqN6-104" value="&lt;font color=&quot;#66b2ff&quot; style=&quot;font-size: 16px;&quot;&gt;&lt;b style=&quot;&quot;&gt;HTTP&lt;/b&gt;&lt;/font&gt;" style="rounded=0;whiteSpace=wrap;html=1;strokeColor=#051B93;shadow=0;" vertex="1" parent="1">
          <mxGeometry x="480" y="600" width="120" height="40" as="geometry" />
        </mxCell>
        <mxCell id="L_GFnndH51G4k3ppBqN6-105" value="&lt;font color=&quot;#66b2ff&quot; style=&quot;font-size: 16px;&quot;&gt;&lt;b&gt;gRPC&lt;/b&gt;&lt;/font&gt;" style="rounded=0;whiteSpace=wrap;html=1;strokeColor=#051B93;shadow=0;" vertex="1" parent="1">
          <mxGeometry x="720" y="600" width="120" height="40" as="geometry" />
        </mxCell>
        <mxCell id="L_GFnndH51G4k3ppBqN6-111" value="" style="shape=image;verticalLabelPosition=bottom;labelBackgroundColor=default;verticalAlign=top;aspect=fixed;imageAspect=0;image=https://upload.wikimedia.org/wikipedia/commons/thumb/c/c0/Dapr_logo.svg/1200px-Dapr_logo.svg.png;" vertex="1" parent="1">
          <mxGeometry x="519.59" y="650" width="40.81" height="30" as="geometry" />
        </mxCell>
        <mxCell id="L_GFnndH51G4k3ppBqN6-112" value="&lt;font color=&quot;#051b93&quot; style=&quot;font-size: 15px;&quot;&gt;Service Mesh&lt;/font&gt;" style="text;html=1;strokeColor=none;fillColor=none;align=center;verticalAlign=middle;whiteSpace=wrap;rounded=0;" vertex="1" parent="1">
          <mxGeometry x="730" y="650" width="100" height="30" as="geometry" />
        </mxCell>
        <mxCell id="L_GFnndH51G4k3ppBqN6-73" value="" style="rounded=0;whiteSpace=wrap;html=1;strokeColor=#051B93;" vertex="1" parent="1">
          <mxGeometry x="540" y="109.32" width="50" height="50" as="geometry" />
        </mxCell>
        <mxCell id="L_GFnndH51G4k3ppBqN6-80" value="" style="shape=image;verticalLabelPosition=bottom;labelBackgroundColor=default;verticalAlign=top;aspect=fixed;imageAspect=0;image=data:image/png,iVBORw0KGgoAAAANSUhEUgAAAOEAAADhCAMAAAAJbSJIAAAApVBMVEX///9LX6v2qBz2owBCWKg/Vqd7iL5JXar2pxX+9uv1oQD2pQD4wG3i5fBqebf2qBP//Pf5yIA6Uqa/xd7+9OU0TqTx8vj2rCr4vGH97NX96c75xXphcrTP0+Zse7j84r/3skJWaK+1vNng4u/5yYWqstT83rn60pr3rzf726+gqc+Ml8ZkdLX09fmyudj98N34uVn6zpKVn8p1g7v3tU385MX4ulz8Alj+AAAIHUlEQVR4nO3daVviPBQGYGpaW1pHmIoiLq8oKIwbOi7//6e9BUSzNqcLSU6G55pPIth7TknaJmk7nV0sZnR3d2Z7G7aZWUaWmdrejm2lPyd7q5Bh1/a2bCX9YbL3laTnI5EC+klkgD4SOaB/RAHoG1ECLIiZP0Qp0KcqKoD+VFEJ9KWKJUA/iKVAH4gaIH6iFoidCADiJoKAqDuNcQ8CRFzFPwQGxFvFOWgfRVzFfgoGIiWOwDspVuKikhAjsV9NiJH4Am9pkBLPqjQ1KyK6TuO84n6KsIoHlYnoqlid+A9UcUd0Lzvijogiu05jV0UU2VVxR0SRHRET8df94fXFw6Xwc2+ID8dhHMdhfnHCv+JJp3EYBevE+S/+NS+qeBgGQZtE56pIAf2sIgP0kcgB/SMKwIIY+USUAP2qohToUxUVQH86DSXQlyqWAP2oYinQh+ZGA8RP1AKxEwFA3M0NCIi5ikBgS1UcOgxsp4rml4VVALZTReIysJUqErPrFysC2yCSO6eBLRCNCmsAmxPJyHFg4+Ymcx7YsIpk5j6wURWTOQZggyomwz4KYO0q4gHWrCImYC0iLmANIjZgZSI+YMXmBiOwUhUNAv9G+i2HE6FVNAg8OW4RCK6iQWDnts0SBsAqmgR29uN2hZAqGgV2HtsW6olmgZ231oU6omFg5769vgJG7BkGdibttqUbojB76jxdLQtLyNgwsNhNt1DEIL4Q/s7ZCyEknf8x7et0nuL2v4lBkIvT/Dr9xch4/VY5CbZADB+sWBTZBlGym9rMFojxtW0Um/aJ8aFtE5eTtpub8N42iU/bVTwW+nzrabeKkVNN6VfarGLo2rdwnfaq6CiwvSo6C2yL6DCwHaLTQCUxjsMwivI8iqJQ83/gOFDa3IRRHj4+3N8cFbm5/fsW5Lma6RbwaTIRTlS5KsZhHj8ccb330+X9xXEkRToFvHzMi1wc8T+nqhhH0d+J/N0nz9e5eOrsFPDheAWJ8zf+lU0V4/xa4NOZ7PNGp4D73xeCo//411ZVjKNryWk694v7x7H7QNmGFVUMoxvI50wec/eBUmL49gT8qOdNGR0GyjYO6itych05D2y6efu588BiA4Xmpkruc+eBTYnPLl1ZkwObEh2KCqgndhej0aJr56J1haiBpcSr6Xj9MJI0m5/fuawsAyrbw7ODlGQ/z+rISPpyZXi7wSkHFsRH8T0fYyI+BYEMjc7NBkcHDELhKLz7ksqfEUDGCxuE8miBcc4fytyJ9fs2pubm9gKjBQb5M/eWaem9LsmBFYcyeqAwXKSbPEnerUgU0QODnDvf1U+AzRwiAoB8CaeASczk1A5HDAAYcKe8V6D7zRpcSlAaCDCOmLdA74qcOtFpQID81ILTjJUsD2XI8h//lKexHRMTEJCbHjJi99GEzGermSKLP/whjtmVZ9LAgHHIvOmdYWTDj5+XRmNuGp5hjxAYkNtJF0wJ+a79lX3V8mE4EBhETGf4m/4Wigt1madAJC/mNJJAgQE7m5AGZpKDs1eamNq89wMYyH4NmYcg9GQfPKa+pzbbGjCQm6Q1y3TbT7e12bkZjSRwINfQnNItqfyzqcbWXmtaAchNYdr72fxMcT8AurExvaB+kyrAIGJODemt/5B/+oD+HTtNTSUg21nQx6RkIP945nesHJtWA7LCLtWMENWlQ7oxtfFQ54pAtVDZ2fXsCqsCOaH7e2llIHf6S2+94qhzYbWlqQ7kegvq+XHZb/nfsNpb1AByPf4B1YxID9qYB5QZvGfAOnWAQcyMyszoAkmXgJxRv2H6qK0WsAj9GcyRt7S/GNo78q4LZBcq0Y85lJ3/MU9FSo2OttUFBhFzmWbKnAELJ4jM6WFi9JppbSDXmA6YSzHkha0S+1wr1ZHrVnKT6ymKcFe8P5krUUlGNTdXQ+ZCo9lzJ/mMSFjYBRIL7oo3yaYfg36/e/a6x19NNHkh6rJ+CYsv4i3zWefcFeG99Tg+Ndz9VUKjgzONFp5zu2k/gT0J0OwRW7MlvdyaSNiTAFOzS0JvGt08IOYG8WeQ0TXDhzPNFi1H/DQF/QCi+eHDiwZtabQvfJyOaGF8tEERJcBiR5VPNdl8B43flrPIUV2iFFg0NxnfaXwnsXSpuyZRASw6jXPFjKH01NZoRS2iElhk8ZIKdczSsY3La1+pQSwDFhlMe4R8HwAkGcnODd6tUpLKRA1wmdHsdJgux/HT3uerxfJ9pSIRAFynOxjYvtf/JpWIYKBTqUDECaxAxAoEE/ECgUTMQBARNxBAxA7UEvEDNURkwO7r+/x9KgxUlhCRAWdpliRJlgpjfUoiMuDvzdUG8bKCgogVCCbiBQKJmIEgIm4ggIgdqCXiB2qIPgDlxM3NPLwAFkSh659cHEdhlMNudmEto48zZjxdCZSu1Znc3N9qb1ZiNbPecgiWGs0qASpn9rqc07WHfN9muAxoeOy5lXwPV25uFV0KND/VrHl+PGtiORBhDemJckuiBriXvdre4qq5Y6ZZzXVAuwt1auWKXRCnHLb8iitrVyukC5r68Q1UzOt1Op+6smEHdrr8bCvfgJ3OAErECgQT8QKBRMxAEBE3EEDEDtQS8QM1RB+ApUQ/gCVEX4BKoj9ABdEnoJToF1BCVC2DxBuemMxdvlljrQhE088y2352RB8iEm1vUevhiaZX6BiIQPRuP+WJVm7AseWwRKMLck2FIRK7qyC2FJqouL8D9vwQEQ5WwDL4Wl7mzs1SW0/3M12O8PtawVW6V3cedhR+5X9zFKtU/GxrYQAAAABJRU5ErkJggg==;" vertex="1" parent="1">
          <mxGeometry x="550" y="119.32" width="30" height="30" as="geometry" />
        </mxCell>
        <mxCell id="L_GFnndH51G4k3ppBqN6-115" value="&lt;font color=&quot;#808080&quot;&gt;Any cloud or edge&amp;nbsp;infrastructure&lt;/font&gt;" style="rounded=0;whiteSpace=wrap;html=1;" vertex="1" parent="1">
          <mxGeometry x="370" y="700" width="570" height="50" as="geometry" />
        </mxCell>
        <mxCell id="L_GFnndH51G4k3ppBqN6-117" value="" style="shape=image;verticalLabelPosition=bottom;labelBackgroundColor=default;verticalAlign=top;aspect=fixed;imageAspect=0;image=https://a0.awsstatic.com/libra-css/images/logos/aws_logo_smile_1200x630.png;" vertex="1" parent="1">
          <mxGeometry x="380" y="710" width="57.14" height="30" as="geometry" />
        </mxCell>
        <mxCell id="L_GFnndH51G4k3ppBqN6-118" value="" style="image;sketch=0;aspect=fixed;html=1;points=[];align=center;fontSize=12;image=img/lib/mscae/Kubernetes.svg;" vertex="1" parent="1">
          <mxGeometry x="900" y="710" width="31.28" height="30" as="geometry" />
        </mxCell>
      </root>
    </mxGraphModel>
  </diagram>
</mxfile>
